<mxfile host="app.diagrams.net" modified="2022-01-27T16:15:51.220Z" agent="5.0 (Windows NT 10.0; Win64; x64) AppleWebKit/537.36 (KHTML, like Gecko) Chrome/97.0.4692.99 Safari/537.36 Edg/97.0.1072.69" etag="3OjC8dKd__V2hMlPSbkv" version="16.4.8" type="github">
  <diagram id="C5RBs43oDa-KdzZeNtuy" name="Page-1">
    <mxGraphModel dx="2617" dy="867" grid="1" gridSize="10" guides="1" tooltips="1" connect="1" arrows="1" fold="1" page="1" pageScale="1" pageWidth="827" pageHeight="1169" math="0" shadow="0">
      <root>
        <mxCell id="WIyWlLk6GJQsqaUBKTNV-0" />
        <mxCell id="WIyWlLk6GJQsqaUBKTNV-1" parent="WIyWlLk6GJQsqaUBKTNV-0" />
        <mxCell id="WIyWlLk6GJQsqaUBKTNV-2" value="" style="rounded=0;html=1;jettySize=auto;orthogonalLoop=1;fontSize=11;endArrow=block;endFill=0;endSize=8;strokeWidth=1;shadow=0;labelBackgroundColor=none;edgeStyle=orthogonalEdgeStyle;entryX=0.5;entryY=0;entryDx=0;entryDy=0;" parent="WIyWlLk6GJQsqaUBKTNV-1" source="WIyWlLk6GJQsqaUBKTNV-3" target="Z5rjBYUsWaB55dEnoK84-0" edge="1">
          <mxGeometry relative="1" as="geometry">
            <mxPoint x="240" y="123" as="targetPoint" />
          </mxGeometry>
        </mxCell>
        <mxCell id="WIyWlLk6GJQsqaUBKTNV-3" value="Start" style="rounded=1;whiteSpace=wrap;html=1;fontSize=12;glass=0;strokeWidth=1;shadow=0;arcSize=16;" parent="WIyWlLk6GJQsqaUBKTNV-1" vertex="1">
          <mxGeometry x="170" y="33" width="120" height="40" as="geometry" />
        </mxCell>
        <mxCell id="WIyWlLk6GJQsqaUBKTNV-5" value="No" style="edgeStyle=orthogonalEdgeStyle;rounded=0;html=1;jettySize=auto;orthogonalLoop=1;fontSize=11;endArrow=block;endFill=0;endSize=8;strokeWidth=1;shadow=0;labelBackgroundColor=none;exitX=0;exitY=0.5;exitDx=0;exitDy=0;" parent="WIyWlLk6GJQsqaUBKTNV-1" source="WIyWlLk6GJQsqaUBKTNV-6" target="WIyWlLk6GJQsqaUBKTNV-7" edge="1">
          <mxGeometry x="-0.395" y="16" relative="1" as="geometry">
            <mxPoint as="offset" />
            <mxPoint x="150" y="414" as="sourcePoint" />
          </mxGeometry>
        </mxCell>
        <mxCell id="Z5rjBYUsWaB55dEnoK84-18" value="Yes" style="edgeStyle=orthogonalEdgeStyle;shape=connector;rounded=0;orthogonalLoop=1;jettySize=auto;html=1;exitX=0.5;exitY=1;exitDx=0;exitDy=0;entryX=0.5;entryY=0;entryDx=0;entryDy=0;shadow=0;labelBackgroundColor=none;fontFamily=Helvetica;fontSize=11;fontColor=default;endArrow=block;endFill=0;endSize=8;strokeColor=default;strokeWidth=1;" edge="1" parent="WIyWlLk6GJQsqaUBKTNV-1" source="WIyWlLk6GJQsqaUBKTNV-6" target="Z5rjBYUsWaB55dEnoK84-2">
          <mxGeometry x="-0.2932" y="20" relative="1" as="geometry">
            <Array as="points">
              <mxPoint x="230" y="490" />
              <mxPoint x="230" y="490" />
            </Array>
            <mxPoint as="offset" />
          </mxGeometry>
        </mxCell>
        <mxCell id="WIyWlLk6GJQsqaUBKTNV-6" value="Is it the first-time simulationï¼Ÿ" style="rhombus;whiteSpace=wrap;html=1;shadow=0;fontFamily=Helvetica;fontSize=12;align=center;strokeWidth=1;spacing=6;spacingTop=-4;" parent="WIyWlLk6GJQsqaUBKTNV-1" vertex="1">
          <mxGeometry x="156" y="371.5" width="148" height="85" as="geometry" />
        </mxCell>
        <mxCell id="Z5rjBYUsWaB55dEnoK84-37" style="edgeStyle=orthogonalEdgeStyle;shape=connector;rounded=0;orthogonalLoop=1;jettySize=auto;html=1;exitX=0.5;exitY=1;exitDx=0;exitDy=0;entryX=0;entryY=0.5;entryDx=0;entryDy=0;shadow=0;labelBackgroundColor=none;fontFamily=Helvetica;fontSize=11;fontColor=default;endArrow=block;endFill=0;endSize=8;strokeColor=default;strokeWidth=1;" edge="1" parent="WIyWlLk6GJQsqaUBKTNV-1" source="WIyWlLk6GJQsqaUBKTNV-7" target="Z5rjBYUsWaB55dEnoK84-34">
          <mxGeometry relative="1" as="geometry" />
        </mxCell>
        <mxCell id="WIyWlLk6GJQsqaUBKTNV-7" value="Load the Adjacency Matrix which has benn trained last time" style="rounded=1;whiteSpace=wrap;html=1;fontSize=12;glass=0;strokeWidth=1;shadow=0;arcSize=0;" parent="WIyWlLk6GJQsqaUBKTNV-1" vertex="1">
          <mxGeometry x="-50" y="519.25" width="120" height="47.5" as="geometry" />
        </mxCell>
        <mxCell id="WIyWlLk6GJQsqaUBKTNV-8" value="Yes" style="rounded=0;html=1;jettySize=auto;orthogonalLoop=1;fontSize=11;endArrow=block;endFill=0;endSize=8;strokeWidth=1;shadow=0;labelBackgroundColor=none;edgeStyle=orthogonalEdgeStyle;" parent="WIyWlLk6GJQsqaUBKTNV-1" source="WIyWlLk6GJQsqaUBKTNV-10" target="WIyWlLk6GJQsqaUBKTNV-11" edge="1">
          <mxGeometry x="-0.2121" y="20" relative="1" as="geometry">
            <mxPoint as="offset" />
          </mxGeometry>
        </mxCell>
        <mxCell id="Z5rjBYUsWaB55dEnoK84-39" value="No" style="edgeStyle=orthogonalEdgeStyle;shape=connector;rounded=0;orthogonalLoop=1;jettySize=auto;html=1;exitX=1;exitY=0.5;exitDx=0;exitDy=0;entryX=1;entryY=0.5;entryDx=0;entryDy=0;shadow=0;labelBackgroundColor=none;fontFamily=Helvetica;fontSize=11;fontColor=default;endArrow=block;endFill=0;endSize=8;strokeColor=default;strokeWidth=1;" edge="1" parent="WIyWlLk6GJQsqaUBKTNV-1" source="WIyWlLk6GJQsqaUBKTNV-10" target="Z5rjBYUsWaB55dEnoK84-34">
          <mxGeometry x="-0.052" y="-20" relative="1" as="geometry">
            <Array as="points">
              <mxPoint x="370" y="768" />
              <mxPoint x="370" y="640" />
            </Array>
            <mxPoint as="offset" />
          </mxGeometry>
        </mxCell>
        <mxCell id="WIyWlLk6GJQsqaUBKTNV-10" value="Finish the simulation?" style="rhombus;whiteSpace=wrap;html=1;shadow=0;fontFamily=Helvetica;fontSize=12;align=center;strokeWidth=1;spacing=6;spacingTop=-4;" parent="WIyWlLk6GJQsqaUBKTNV-1" vertex="1">
          <mxGeometry x="180" y="728" width="100" height="80" as="geometry" />
        </mxCell>
        <mxCell id="WIyWlLk6GJQsqaUBKTNV-11" value="Finish" style="rounded=1;whiteSpace=wrap;html=1;fontSize=12;glass=0;strokeWidth=1;shadow=0;" parent="WIyWlLk6GJQsqaUBKTNV-1" vertex="1">
          <mxGeometry x="170" y="874" width="120" height="40" as="geometry" />
        </mxCell>
        <mxCell id="Z5rjBYUsWaB55dEnoK84-26" style="edgeStyle=orthogonalEdgeStyle;shape=connector;rounded=0;orthogonalLoop=1;jettySize=auto;html=1;exitX=0.5;exitY=1;exitDx=0;exitDy=0;entryX=0.5;entryY=0;entryDx=0;entryDy=0;shadow=0;labelBackgroundColor=none;fontFamily=Helvetica;fontSize=11;fontColor=default;endArrow=block;endFill=0;endSize=8;strokeColor=default;strokeWidth=1;" edge="1" parent="WIyWlLk6GJQsqaUBKTNV-1" source="Z5rjBYUsWaB55dEnoK84-0" target="Z5rjBYUsWaB55dEnoK84-25">
          <mxGeometry relative="1" as="geometry" />
        </mxCell>
        <mxCell id="Z5rjBYUsWaB55dEnoK84-0" value="Set the simulation parameters" style="rounded=0;whiteSpace=wrap;html=1;" vertex="1" parent="WIyWlLk6GJQsqaUBKTNV-1">
          <mxGeometry x="133" y="133" width="194" height="40" as="geometry" />
        </mxCell>
        <mxCell id="Z5rjBYUsWaB55dEnoK84-36" style="edgeStyle=orthogonalEdgeStyle;shape=connector;rounded=0;orthogonalLoop=1;jettySize=auto;html=1;exitX=0.5;exitY=1;exitDx=0;exitDy=0;entryX=0.5;entryY=0;entryDx=0;entryDy=0;shadow=0;labelBackgroundColor=none;fontFamily=Helvetica;fontSize=11;fontColor=default;endArrow=block;endFill=0;endSize=8;strokeColor=default;strokeWidth=1;" edge="1" parent="WIyWlLk6GJQsqaUBKTNV-1" source="Z5rjBYUsWaB55dEnoK84-2" target="Z5rjBYUsWaB55dEnoK84-34">
          <mxGeometry relative="1" as="geometry" />
        </mxCell>
        <mxCell id="Z5rjBYUsWaB55dEnoK84-2" value="Generate the&amp;nbsp;Adjacency Matrix" style="rounded=0;whiteSpace=wrap;html=1;" vertex="1" parent="WIyWlLk6GJQsqaUBKTNV-1">
          <mxGeometry x="133" y="523" width="194" height="40" as="geometry" />
        </mxCell>
        <mxCell id="Z5rjBYUsWaB55dEnoK84-30" value="Yes" style="edgeStyle=orthogonalEdgeStyle;shape=connector;rounded=0;orthogonalLoop=1;jettySize=auto;html=1;exitX=0.5;exitY=1;exitDx=0;exitDy=0;entryX=0.5;entryY=0;entryDx=0;entryDy=0;shadow=0;labelBackgroundColor=none;fontFamily=Helvetica;fontSize=11;fontColor=default;endArrow=block;endFill=0;endSize=8;strokeColor=default;strokeWidth=1;" edge="1" parent="WIyWlLk6GJQsqaUBKTNV-1" source="Z5rjBYUsWaB55dEnoK84-25" target="WIyWlLk6GJQsqaUBKTNV-6">
          <mxGeometry x="-0.1608" y="20" relative="1" as="geometry">
            <mxPoint as="offset" />
          </mxGeometry>
        </mxCell>
        <mxCell id="Z5rjBYUsWaB55dEnoK84-31" style="edgeStyle=orthogonalEdgeStyle;shape=connector;rounded=0;orthogonalLoop=1;jettySize=auto;html=1;exitX=1;exitY=0.5;exitDx=0;exitDy=0;entryX=1;entryY=0.5;entryDx=0;entryDy=0;shadow=0;labelBackgroundColor=none;fontFamily=Helvetica;fontSize=11;fontColor=default;endArrow=block;endFill=0;endSize=8;strokeColor=default;strokeWidth=1;" edge="1" parent="WIyWlLk6GJQsqaUBKTNV-1" source="Z5rjBYUsWaB55dEnoK84-25" target="Z5rjBYUsWaB55dEnoK84-2">
          <mxGeometry relative="1" as="geometry">
            <Array as="points">
              <mxPoint x="370" y="260" />
              <mxPoint x="370" y="543" />
            </Array>
          </mxGeometry>
        </mxCell>
        <mxCell id="Z5rjBYUsWaB55dEnoK84-33" value="No" style="edgeLabel;html=1;align=center;verticalAlign=middle;resizable=0;points=[];fontSize=11;fontFamily=Helvetica;fontColor=default;" vertex="1" connectable="0" parent="Z5rjBYUsWaB55dEnoK84-31">
          <mxGeometry x="-0.0616" relative="1" as="geometry">
            <mxPoint x="20" y="14" as="offset" />
          </mxGeometry>
        </mxCell>
        <mxCell id="Z5rjBYUsWaB55dEnoK84-25" value="Use STDP or not?" style="rhombus;whiteSpace=wrap;html=1;fontFamily=Helvetica;fontSize=11;fontColor=default;" vertex="1" parent="WIyWlLk6GJQsqaUBKTNV-1">
          <mxGeometry x="160" y="220" width="140" height="80" as="geometry" />
        </mxCell>
        <mxCell id="Z5rjBYUsWaB55dEnoK84-38" style="edgeStyle=orthogonalEdgeStyle;shape=connector;rounded=0;orthogonalLoop=1;jettySize=auto;html=1;exitX=0.5;exitY=1;exitDx=0;exitDy=0;shadow=0;labelBackgroundColor=none;fontFamily=Helvetica;fontSize=11;fontColor=default;endArrow=block;endFill=0;endSize=8;strokeColor=default;strokeWidth=1;" edge="1" parent="WIyWlLk6GJQsqaUBKTNV-1" source="Z5rjBYUsWaB55dEnoK84-34" target="WIyWlLk6GJQsqaUBKTNV-10">
          <mxGeometry relative="1" as="geometry" />
        </mxCell>
        <mxCell id="Z5rjBYUsWaB55dEnoK84-34" value="Run the simulation" style="rounded=0;whiteSpace=wrap;html=1;fontFamily=Helvetica;fontSize=11;fontColor=default;" vertex="1" parent="WIyWlLk6GJQsqaUBKTNV-1">
          <mxGeometry x="171" y="620" width="117" height="40" as="geometry" />
        </mxCell>
      </root>
    </mxGraphModel>
  </diagram>
</mxfile>
